
<svg xmlns="http://www.w3.org/2000/svg" viewBox="0 0 32 32" width="32" height="32">
  <defs>
    <linearGradient id="heartGradient" x1="0%" y1="0%" x2="100%" y2="100%">
      <stop offset="0%" style="stop-color:#ec4899;stop-opacity:1" />
      <stop offset="50%" style="stop-color:#f472b6;stop-opacity:1" />
      <stop offset="100%" style="stop-color:#f59e0b;stop-opacity:1" />
    </linearGradient>
  </defs>
  
  <!-- Background circle -->
  <circle cx="16" cy="16" r="15" fill="white" stroke="#ec4899" stroke-width="2"/>
  
  <!-- Heart shape -->
  <path d="M16 26c-0.5 0-1-0.2-1.4-0.6C11.8 22.6 8 18.2 8 14c0-3.3 2.7-6 6-6 1.5 0 2.9 0.6 4 1.5C19.1 8.6 20.5 8 22 8c3.3 0 6 2.7 6 6 0 4.2-3.8 8.6-6.6 11.4C21 25.8 20.5 26 20 26H16z" fill="url(#heartGradient)"/>
  
  <!-- Ring detail -->
  <circle cx="12" cy="12" r="2" fill="none" stroke="#f59e0b" stroke-width="1"/>
  <circle cx="20" cy="12" r="2" fill="none" stroke="#f59e0b" stroke-width="1"/>
</svg>
